<?php xml version="1.0" encoding="utf-8"?>
<!-- Generator: Adobe Illustrator 24.2.0, SVG Export Plug-In . SVG Version: 6.00 Build 0)  -->
<svg version="1.1" id="Layer_1" xmlns="http://www.w3.org/2000/svg" xmlns:xlink="http://www.w3.org/1999/xlink" x="0px" y="0px"
	 viewBox="0 0 1847.5 751.3" style="enable-background:new 0 0 1847.5 751.3;" xml:space="preserve">
<g>
	<g>
		<path d="M127.9,649.2h-10.2l-8.9-24.7h-33L67,649.2H56.8l31.1-82.6h9.2L127.9,649.2z M92,578.3l-13.4,37.8h27L92,578.3z"/>
		<path d="M147.5,649.2h-8.8v-82.6h8.8V649.2z"/>
		<path d="M191.6,573.6c-4.2,0-7.3,1.1-9.3,3.2c-2.1,2.1-3.1,5.8-3.1,10.9v0.2h16.7v7.5h-16.7v53.8h-8.8v-53.8h-9.2v-7.5h9.2v-0.2
			c0-7.4,1.9-13,5.7-16.7c3.8-3.7,9.1-5.5,15.8-5.5c3.1,0,5.7,0.4,7.9,1.1l-1.5,7.9C195.3,573.8,193.2,573.6,191.6,573.6z"/>
		<path d="M200.2,618.8c0-6.8,1.6-12.8,4.9-17.8c3.2-5.1,7.2-8.7,11.9-11c4.7-2.3,9.6-3.4,14.9-3.4c3.8,0,7.6,0.6,11.3,1.9
			c3.7,1.3,7.2,3.2,10.3,5.6c3.2,2.5,5.7,5.8,7.7,9.9c2,4.2,2.9,8.8,2.9,14c0,10.1-3.2,18-9.7,23.7c-6.5,5.7-14.1,8.6-22.9,8.6
			c-5.4,0-10.4-1.1-15-3.3c-4.6-2.2-8.5-5.7-11.6-10.6C201.7,631.6,200.2,625.7,200.2,618.8z M209.4,618.2c0,7.9,2.2,13.9,6.5,18
			c4.3,4.1,9.7,6.1,16.1,6.1c6.5,0,11.9-2,16.3-6.1c4.3-4,6.5-9.8,6.5-17.3c0-7.7-2.2-13.6-6.7-17.9c-4.5-4.2-9.8-6.3-16.1-6.3
			c-6,0-11.2,2-15.7,6.1C211.7,604.8,209.4,610.6,209.4,618.2z"/>
		<path d="M312.4,586.6c6,0,10.9,1.9,14.7,5.6c3.8,3.7,5.8,10,5.8,18.9v38.2H324v-37c0-5.9-1.2-10.2-3.6-13.1
			c-2.4-2.9-5.7-4.3-9.8-4.3c-5.2,0-9.5,1.7-13.1,5.1c-3.6,3.4-6.8,8.7-9.6,15.9v33.4h-8.8v-61.3h8.8v14.5
			C294.1,591.8,302.3,586.6,312.4,586.6z"/>
		<path d="M387.3,639.1l2.2,7.2c-5.2,2.7-10.7,4.1-16.5,4.1c-5.6,0-10.1-1.8-13.5-5.3c-3.4-3.5-5.2-9-5.2-16.3v-33.4h-11.2v-7.5
			h11.2v-18.6h8.8v18.6H386v7.5h-22.8v32c0,10,3.9,15,11.6,15C379.3,642.4,383.4,641.3,387.3,639.1z"/>
		<path d="M397.2,648.4c-1.3-1.4-2-3-2-5c0-2,0.7-3.6,2-5c1.3-1.4,3-2.1,4.9-2.1c2,0,3.7,0.7,5.1,2c1.3,1.3,2,3,2,5.1
			c0,2-0.7,3.6-2.1,5c-1.4,1.4-3,2.1-5,2.1C400.2,650.4,398.6,649.7,397.2,648.4z"/>
		<path d="M469.1,637.6l2.6,6.9c-5.1,3.9-11.9,5.9-20.3,5.9c-8.2,0-15.4-2.8-21.4-8.3c-6-5.6-9-13.2-9-23c0-10.1,3-18,9.1-23.8
			c6.1-5.8,13.2-8.6,21.3-8.6c8.7,0,15.4,2,20.2,6l-3.2,7.9c-2.6-1.9-5.1-3.3-7.5-4.3c-2.4-1-5.6-1.5-9.5-1.5
			c-5.7,0-10.7,2.1-14.9,6.3c-4.2,4.2-6.3,10.1-6.3,17.5c0,7.2,2.1,13,6.2,17.3c4.2,4.3,9.1,6.5,14.9,6.5
			C458.4,642.3,464.3,640.7,469.1,637.6z"/>
		<path d="M479.4,618.8c0-6.8,1.6-12.8,4.9-17.8c3.2-5.1,7.2-8.7,11.9-11c4.7-2.3,9.6-3.4,14.9-3.4c3.8,0,7.6,0.6,11.3,1.9
			c3.7,1.3,7.2,3.2,10.3,5.6c3.2,2.5,5.7,5.8,7.7,9.9c2,4.2,2.9,8.8,2.9,14c0,10.1-3.2,18-9.7,23.7c-6.5,5.7-14.1,8.6-22.9,8.6
			c-5.4,0-10.4-1.1-15-3.3c-4.6-2.2-8.5-5.7-11.6-10.6C481,631.6,479.4,625.7,479.4,618.8z M488.7,618.2c0,7.9,2.2,13.9,6.5,18
			c4.3,4.1,9.7,6.1,16.1,6.1c6.5,0,11.9-2,16.3-6.1c4.3-4,6.5-9.8,6.5-17.3c0-7.7-2.2-13.6-6.7-17.9c-4.5-4.2-9.8-6.3-16.1-6.3
			c-6,0-11.2,2-15.7,6.1C491,604.8,488.7,610.6,488.7,618.2z"/>
		<path d="M635.5,586.6c5.9,0,10.7,1.9,14.6,5.6c3.8,3.8,5.8,10,5.8,18.8v38.2H647v-37c0-5.9-1.2-10.2-3.6-13.1
			c-2.4-2.9-5.7-4.3-9.8-4.3c-9.3,0-16.7,7-22.1,20.9v33.5h-8.8v-37c0-5.9-1.2-10.2-3.6-13.1c-2.4-2.9-5.7-4.3-9.8-4.3
			c-9.2,0-16.6,7.1-22.1,21.2v33.3h-8.8v-61.3h8.8v14.3c6-10.4,13.9-15.6,24-15.6c11,0,17.6,5.6,19.7,16.8
			C616.9,592.2,625.1,586.6,635.5,586.6z"/>
	</g>
</g>
<g>
	<path d="M574.3,522.4c-29.3,0-53.6-6.5-72.2-19.5c-14-9.7-25-21.2-32.9-34.3c-14.5,16.4-36.8,29.1-66.4,37.9
		c-35.2,10.5-82.1,15.8-139.5,15.8c-71.1,0-124.8-12.7-159.7-37.7c-35.8-25.7-53.9-64.3-53.9-114.8c0-16.2,2-34,6.1-52.7
		c4-18.6,9.2-36.7,15.5-53.9l3-8.1l57.1,19.9l-2.8,8.3c-5.2,15.4-9.3,30.2-12,43.8c-2.7,13.5-4.1,26.1-4.1,37.5
		c0,29.7,11.2,50.6,34.1,63.7c24.2,13.9,63.3,21,116.2,21h21.6c57.6-0.4,99.5-4.5,124.5-12.1c32.6-10,32.6-24.9,32.6-29.8v-40.7
		c0-12.1-0.2-24.2-0.6-36l-0.3-7.9l64.7-9.4v82.3c0,17,5.4,29.5,16.6,38.1c11.7,9,29.3,13.6,52.3,13.6h2l16.1,7.5v59.9l-16.1,7.5
		L574.3,522.4L574.3,522.4z"/>
	<path d="M572.4,522.4l-16.1-7.5V455l16.1-7.5h2c20.2,0,37.2-1.4,50.3-4.1c12.7-2.6,22.7-6.3,29.7-10.8c6.6-4.2,11.1-9.1,13.7-14.8
		c2.7-6,4.1-12.5,4.1-19.5c0-5.6-0.7-13.1-2.1-22.1c-1.4-9.2-3.3-19.5-5.8-30.6c-2.4-10.9-5.3-22.6-8.8-35
		c-3.5-12.3-7.1-24-10.7-34.8l-2.3-6.9l60.3-33.9l3.6,9.7c4.2,11.3,8.1,23.8,11.7,37.2c3.5,13.2,6.6,26.3,9.4,39
		c2.7,12.8,4.9,25,6.6,36.4c1.7,11.7,2.6,21.8,2.6,29.9c0,18.3-3.3,35.9-9.9,52.3c-6.6,16.5-16.4,31.1-29.2,43.2
		c-12.7,12.1-28.6,21.8-47.3,29c-18.6,7.1-40.4,10.8-64.8,10.8h-13.1V522.4z M666.9,197.3c-10.8,0-20.8-4.3-28.2-12.1
		c-14.5-15.2-14.5-38.9,0-54.1c7.4-7.8,17.5-12.1,28.2-12.1s20.8,4.3,28.2,12.1c14.5,15.2,14.5,38.9,0,54.1
		C687.6,193.1,677.6,197.3,666.9,197.3z"/>
	<path d="M863,658.1c-14.6,0-29.3-1.6-43.8-4.8c-14.4-3.2-28-7.4-40.3-12.5l-7-2.9l16.5-65l8.8,2.7c9,2.7,19.9,5,32.6,6.8
		s26.2,2.7,40.1,2.7c29.2,0,53.5-7.1,72.2-21c15.5-11.5,25.8-25.2,31.2-41.6h-33.7c-50.1,0-89-9.1-115.7-27.1
		c-27.7-18.7-41.8-45.4-41.8-79.2c0-18.7,3.2-36.6,9.5-53.1s15.2-31.3,26.3-43.8c11.2-12.5,24.6-22.6,39.8-29.8
		c15.3-7.3,31.9-11,49.1-11c17.6,0,34.5,4.8,50.4,14.2c15.5,9.2,29.4,21.9,41.2,37.8c11.6,15.7,21.1,34.6,28.1,56.2
		c6.2,19,10,39.4,11.4,60.9h41.1l16.1,7.5V515l-16.1,7.5h-47.3c-9.2,40-27.9,72.6-55.6,96.8C946.7,645,908.6,658.1,863,658.1z
		 M896.3,351.5c-8.1,0-15.6,1.6-22.2,4.6c-6.7,3.1-12.5,7.3-17.3,12.5c-4.8,5.3-8.7,11.5-11.6,18.6c-2.9,7-4.3,14.7-4.3,22.8
		c0,14.8,6.5,23.9,20.6,28.7c16.7,5.7,42.3,8.6,76.1,8.6h37.3c-2.1-12.1-5-23.5-8.9-34c-4.8-13-11-24.2-18.3-33.3
		c-7.3-9-15.5-16.2-24.4-21.3C914.8,353.9,906,351.5,896.3,351.5z"/>
	<path d="M1356.5,522.4c-47.8,0-93-9.3-134.5-27.5c-18.6,8.1-40,14.7-63.6,19.6c-25.1,5.2-49.8,7.9-73.3,7.9h-10l-16.1-7.5V455
		l16.1-7.5h11.8c14.9,0,29.9-0.6,44.6-1.8c7.6-0.6,14.8-1.4,21.5-2.2c-10.9-11.5-19.8-23.7-26.4-36.5c-9.3-17.8-13.9-35.7-13.9-53.1
		c0-17.1,3-33.3,8.9-48.3c5.9-14.9,14.1-28.2,24.2-39.4c10.2-11.3,22.6-20.4,36.7-27.1c14.3-6.7,29.8-10.1,46.3-10.1
		c16.4,0,31.8,3.2,45.8,9.4c13.9,6.2,26.2,14.7,36.4,25.4c10.2,10.6,18.3,23.3,24.3,37.6c6,14.4,9,29.9,9,46.3
		c0,20.4-5.5,40.2-16.3,59c-7.6,13.2-17.5,25.3-29.7,36.2c8.1,1.2,16.2,2.1,24.3,2.8c14.5,1.2,30.2,1.8,46.8,1.8h14.9l16.1,7.5v59.9
		l-16.1,7.5H1356.5z M1225.1,302.1c-16.7,0-29.7,4.7-39.9,14.4c-10,9.6-14.9,21.5-14.9,36.3c0,13.3,4.9,26.1,15.1,39.1
		c9.7,12.5,22.7,23.1,38.7,31.6c17.8-8.1,32-18.2,42.1-30c10.4-12.2,15.5-24.9,15.5-38.8c0-14.9-5-27.1-15.3-37.4
		C1256.1,307.1,1242.6,302.1,1225.1,302.1z M1227.6,180.7c-10.8,0-20.8-4.3-28.2-12c-14.5-15.2-14.5-38.9,0-54.1
		c7.4-7.8,17.5-12.1,28.2-12.1c10.8,0,20.8,4.3,28.2,12.1c14.5,15.2,14.5,38.9,0,54.1C1248.4,176.4,1238.4,180.7,1227.6,180.7
		L1227.6,180.7z"/>
	<path d="M1473.6,174.7c0,19.3,0.1,39,0.3,58.6c0.2,29,0.3,55.5,0.3,81.1v69.7c0,10.8-1.5,20.4-4.4,28.4
		c-2.7,7.5-7.2,13.6-13.7,18.5c-6.8,5.2-16.2,9.2-27.9,12c-12.2,2.9-27.6,4.4-45.8,4.4h-2l-16.1,7.5v59.9l16.1,7.5h2
		c28.7,0,53.1-4.4,72.7-13.1c19.7-8.8,35.9-20.9,48-36.2c12-15.1,20.8-32.9,26-52.9c5.1-19.5,7.7-40.6,7.7-62.7V174.7H1473.6z"/>
	<path d="M1611.8,174.7v161.9c0.4,37-0.2,70.1-1.8,98.1c-1.6,27.9-4.7,53-9.1,74.6l-1.7,8.6l61.1,12.9l1.7-8.8
		c2.9-14.9,5.3-29.8,7.2-44.4c1.9-14.5,3.3-29.8,4.4-45.3c1-15.6,1.8-32,2.2-48.8c0.4-17.2,0.6-36,0.6-55.7V174.7H1611.8z"/>
	<path d="M247.3,283.9c-10.5,0-20.3-4.1-27.6-11.4c-15.2-15.2-15.2-40.2,0-55.3c7.4-7.4,17.2-11.4,27.6-11.4
		c10.8,0,20.8,4.3,28.2,12.1c14.5,15.2,14.5,38.9,0,54.1C268.1,279.6,258,283.9,247.3,283.9z"/>
	<path d="M335.5,283.9c-10.5,0-20.3-4.1-27.6-11.4c-15.2-15.2-15.2-40.2,0-55.3c7.4-7.4,17.2-11.4,27.6-11.4
		c10.8,0,20.8,4.3,28.2,12.1c14.5,15.2,14.5,38.9,0,54.1C356.2,279.6,346.2,283.9,335.5,283.9z"/>
</g>
</svg>
